# xmcd
#
# Track frame offsets: 
#        150
#        17446
#        40419
#        54980
#        76668
#        100230
#        120076
#        141743
#        162235
#        185669
#        205141
#        228577
#        244242
#        265408
#
# Disc length: 3752 seconds
#
# Revision: 0
# Processed by: cddbd v1.5.2PL0 Copyright (c) Steve Scherf et al.
# Submitted via: ExactAudioCopy v0.95b4
#
DISCID=ba0ea60e
DTITLE=I See Hawks In L.A. - Hallowed Ground
DYEAR=2008
DGENRE=Country
TTITLE0=Carbon Dated Love
TTITLE1=Keep It In A Bottle
TTITLE2=In The Garden
TTITLE3=Yolo Country Airport
TTITLE4=Highway Down
TTITLE5=Hallowed Ground
TTITLE6=Environmental Children Of The Future
TTITLE7=Ever Since The Grid Went Down
TTITLE8=Pale And Troubled Race
TTITLE9=The Salty Sea
TTITLE10=Gettin Home Tonight
TTITLE11=Open Door
TTITLE12=Never Alive
TTITLE13=Good And Foolish Times
EXTD=
EXTT0=
EXTT1=
EXTT2=
EXTT3=
EXTT4=
EXTT5=
EXTT6=
EXTT7=
EXTT8=
EXTT9=
EXTT10=
EXTT11=
EXTT12=
EXTT13=
PLAYORDER=
